<svg xmlns="http://www.w3.org/2000/svg" xmlns:xlink="http://www.w3.org/1999/xlink" width="69" height="62" version="1.1" viewBox="0 0 69 62"><title>Group 5</title><desc>Created with Sketch.</desc><defs><linearGradient id="linearGradient-1" x1="16.68%" x2="91.464%" y1="100%" y2="0%"><stop offset="0%" stop-color="#4778C9"/><stop offset="100%" stop-color="#57B1FF"/></linearGradient></defs><g id="Page-1" fill="none" fill-rule="evenodd" stroke="none" stroke-width="1"><g id="Group-5" transform="translate(-2.000000, -2.000000)"><g id="Group-4" transform="translate(35.499555, 32.483014) rotate(-3.000000) translate(-35.499555, -32.483014) translate(1.999555, 1.983014)"><ellipse id="Oval-160" cx="30.5" cy="30.5" fill="url(#linearGradient-1)" rx="30.5" ry="30.5"/><ellipse id="Oval-161" cx="15.518" cy="34.781" fill="#FFF" rx="4.816" ry="4.816"/><path id="Path-237" stroke="#FFF" stroke-width="3" d="M2.14035088,48.6929825 L14.9824561,34.7807018 L31.5701754,44.9473684 L48.1578947,18.1929825 L66.3508772,31.0350877"/><ellipse id="Oval-161-Copy" cx="31.57" cy="43.342" fill="#FFF" rx="4.816" ry="4.816"/><ellipse id="Oval-161-Copy" cx="47.623" cy="18.728" fill="#FFF" rx="4.816" ry="4.816"/></g><g id="Group-3" transform="translate(40.000000, 29.000000)"><circle id="Oval-157" cx="15.5" cy="15.5" r="15.5" fill="#FFF" stroke="#979797" stroke-dasharray="3"/><g id="Group-2" fill="#9CDE9B" transform="translate(7.000000, 7.000000)"><rect id="Rectangle-623" width="3" height="17" x="7" y="0" rx="100"/><rect id="Rectangle-623" width="3" height="17" x="7" y="0" rx="100" transform="translate(8.500000, 8.500000) rotate(-270.000000) translate(-8.500000, -8.500000)"/></g></g></g></g></svg>